# xmcd CD database file
#
# Track frame offsets:
#	150
#	22733
#	48498
#	69060
#	90300
#
# Disc length: 1552 seconds
#
# Revision: 0
# Processed by: cddbd v1.5PL3 Copyright (c) Steve Scherf et al.
# Submitted via: CDex 1.51
#
DISCID=2a060e05
DTITLE=伊藤 君子 - フォロー・ミー
DYEAR=2004
DGENRE=Jazz
TTITLE0=フォロー・ミー ＜映画『イノセンス』主題歌＞
TTITLE1=リヴァー・オブ・クリスタルズ ＜映画『イノセンス』挿入歌＞
TTITLE2=ア・ソング・フォー・ユー
TTITLE3=マイ・フェイヴァリット・シングス
TTITLE4=リヴァー・オブ・クリスタルズ ＜オリジナル・ヴァージョン＞
EXTD=YEAR: 2004
EXTT0=
EXTT1=
EXTT2=
EXTT3=
EXTT4=
PLAYORDER=
